<svg width="800" height="800" viewBox="0 0 800 800" fill="none" xmlns="http://www.w3.org/2000/svg">
<g clip-path="url(#clip0_28_123)">
<path d="M579.217 55.6971C583.232 48.101 594.616 48.101 598.63 55.6971C633.161 121.028 686.821 174.688 752.153 209.218C759.749 213.233 759.749 224.616 752.153 228.631C686.821 263.162 633.161 316.821 598.63 382.153C594.615 389.749 583.232 389.749 579.217 382.153C544.687 316.822 491.028 263.162 425.697 228.631C418.101 224.616 418.101 213.233 425.697 209.218C491.028 174.688 544.687 121.028 579.217 55.6971Z" fill="black"/>
<mask id="mask0_28_123" style="mask-type:alpha" maskUnits="userSpaceOnUse" x="0" y="0" width="800" height="800">
<path d="M800 800H0V0H800V800ZM620.412 27.7803C606.758 5.91855 571.622 5.91852 557.968 27.7803C517.487 92.5963 462.596 147.487 397.78 187.969C375.919 201.623 375.919 236.759 397.78 250.413C462.596 290.894 517.487 345.785 557.968 410.601C571.622 432.463 606.758 432.463 620.412 410.601C660.894 345.784 715.785 290.894 780.602 250.413C802.463 236.759 802.463 201.623 780.602 187.969C715.785 147.487 660.894 92.5964 620.412 27.7803Z" fill="#D9D9D9"/>
</mask>
<g mask="url(#mask0_28_123)">
<path d="M30 267.83C30 464.937 770 464.937 770 267.83M30 267.83C30 70.7233 770 70.7233 770 267.83M30 267.83V360.963V590.219C30 809.532 770 810.322 770 590.219V267.83" stroke="black" stroke-width="40"/>
</g>
</g>
<defs>
<clipPath id="clip0_28_123">
<rect width="800" height="800" fill="white"/>
</clipPath>
</defs>
</svg>
