<svg width="800" height="800" viewBox="0 0 800 800" fill="none" xmlns="http://www.w3.org/2000/svg">
<path d="M740 100C773.137 100 800 126.863 800 160V640C800 673.137 773.137 700 740 700H60C26.8629 700 4.83258e-07 673.137 0 640V160C7.73213e-06 126.863 26.8629 100 60 100H740ZM66.667 127.272C44.5757 127.272 26.6671 145.181 26.667 167.272V632.728C26.6671 654.819 44.5757 672.728 66.667 672.728H733.333C755.424 672.728 773.333 654.819 773.333 632.728V167.272C773.333 145.181 755.424 127.272 733.333 127.272H66.667Z" fill="#F5F5F5"/>
<path d="M653.333 236.364C653.333 228.833 659.303 222.727 666.667 222.727C674.03 222.727 680 228.833 680 236.364V563.636C680 571.168 674.03 577.273 666.667 577.273C659.303 577.273 653.333 571.168 653.333 563.636V236.364Z" fill="url(#paint0_linear_14_49)"/>
<path d="M613.333 236.364C613.333 228.833 619.303 222.727 626.667 222.727C634.03 222.727 640 228.833 640 236.364V563.636C640 571.168 634.03 577.273 626.667 577.273C619.303 577.273 613.333 571.168 613.333 563.636V236.364Z" fill="url(#paint1_linear_14_49)"/>
<path d="M560 236.364C560 228.833 565.97 222.727 573.333 222.727C580.697 222.727 586.667 228.833 586.667 236.364V563.636C586.667 571.168 580.697 577.273 573.333 577.273C565.97 577.273 560 571.168 560 563.636V236.364Z" fill="url(#paint2_linear_14_49)"/>
<path d="M506.667 236.364C506.667 228.833 512.636 222.727 520 222.727C527.364 222.727 533.333 228.833 533.333 236.364V563.636C533.333 571.168 527.364 577.273 520 577.273C512.636 577.273 506.667 571.168 506.667 563.636V236.364Z" fill="url(#paint3_linear_14_49)"/>
<path d="M120 236.364C120 228.833 125.97 222.727 133.333 222.727C140.697 222.727 146.667 228.833 146.667 236.364V563.636C146.667 571.168 140.697 577.273 133.333 577.273C125.97 577.273 120 571.168 120 563.636V236.364Z" fill="url(#paint4_linear_14_49)"/>
<path d="M160 236.364C160 228.833 165.97 222.727 173.333 222.727C180.697 222.727 186.667 228.833 186.667 236.364V563.636C186.667 571.168 180.697 577.273 173.333 577.273C165.97 577.273 160 571.168 160 563.636V236.364Z" fill="url(#paint5_linear_14_49)"/>
<path d="M213.333 236.364C213.333 228.833 219.303 222.727 226.667 222.727H253.333C260.697 222.727 266.667 228.833 266.667 236.364V563.636C266.667 571.168 260.697 577.273 253.333 577.273H226.667C219.303 577.273 213.333 571.168 213.333 563.636V236.364Z" fill="url(#paint6_linear_14_49)"/>
<path d="M346.667 236.364C346.667 228.833 352.636 222.727 360 222.727H386.667C394.03 222.727 400 228.833 400 236.364V563.636C400 571.168 394.03 577.273 386.667 577.273H360C352.636 577.273 346.667 571.168 346.667 563.636V236.364Z" fill="url(#paint7_linear_14_49)"/>
<path d="M426.667 236.364C426.667 228.833 432.636 222.727 440 222.727H466.667C474.03 222.727 480 228.833 480 236.364V563.636C480 571.168 474.03 577.273 466.667 577.273H440C432.636 577.273 426.667 571.168 426.667 563.636V236.364Z" fill="url(#paint8_linear_14_49)"/>
<path d="M280 236.364C280 228.833 285.97 222.727 293.333 222.727C300.697 222.727 306.667 228.833 306.667 236.364V563.636C306.667 571.168 300.697 577.273 293.333 577.273C285.97 577.273 280 571.168 280 563.636V236.364Z" fill="url(#paint9_linear_14_49)"/>
<path d="M60 181.364C60 170.318 68.9543 161.364 80 161.364H210C215.523 161.364 220 165.841 220 171.364V178.636C220 184.159 215.523 188.636 210 188.636H91.6667C88.9052 188.636 86.6667 190.875 86.6667 193.636V315C86.6667 320.523 82.1895 325 76.6667 325H70C64.4771 325 60 320.523 60 315V181.364Z" fill="#F5F5F5"/>
<path d="M740 618.636C740 629.682 731.046 638.636 720 638.636H590C584.477 638.636 580 634.159 580 628.636V621.364C580 615.841 584.477 611.364 590 611.364H708.333C711.095 611.364 713.333 609.125 713.333 606.364V485C713.333 479.477 717.81 475 723.333 475H730C735.523 475 740 479.477 740 485V618.636Z" fill="#F5F5F5"/>
<defs>
<linearGradient id="paint0_linear_14_49" x1="436.267" y1="279.134" x2="360.697" y2="519.914" gradientUnits="userSpaceOnUse">
<stop stop-color="#FFD220"/>
<stop offset="1" stop-color="#3D41FD"/>
</linearGradient>
<linearGradient id="paint1_linear_14_49" x1="436.267" y1="279.134" x2="360.697" y2="519.914" gradientUnits="userSpaceOnUse">
<stop stop-color="#FFD220"/>
<stop offset="1" stop-color="#3D41FD"/>
</linearGradient>
<linearGradient id="paint2_linear_14_49" x1="436.267" y1="279.134" x2="360.697" y2="519.914" gradientUnits="userSpaceOnUse">
<stop stop-color="#FFD220"/>
<stop offset="1" stop-color="#3D41FD"/>
</linearGradient>
<linearGradient id="paint3_linear_14_49" x1="436.267" y1="279.134" x2="360.697" y2="519.914" gradientUnits="userSpaceOnUse">
<stop stop-color="#FFD220"/>
<stop offset="1" stop-color="#3D41FD"/>
</linearGradient>
<linearGradient id="paint4_linear_14_49" x1="436.267" y1="279.134" x2="360.697" y2="519.914" gradientUnits="userSpaceOnUse">
<stop stop-color="#FFD220"/>
<stop offset="1" stop-color="#3D41FD"/>
</linearGradient>
<linearGradient id="paint5_linear_14_49" x1="436.267" y1="279.134" x2="360.697" y2="519.914" gradientUnits="userSpaceOnUse">
<stop stop-color="#FFD220"/>
<stop offset="1" stop-color="#3D41FD"/>
</linearGradient>
<linearGradient id="paint6_linear_14_49" x1="436.267" y1="279.134" x2="360.697" y2="519.914" gradientUnits="userSpaceOnUse">
<stop stop-color="#FFD220"/>
<stop offset="1" stop-color="#3D41FD"/>
</linearGradient>
<linearGradient id="paint7_linear_14_49" x1="436.267" y1="279.134" x2="360.697" y2="519.914" gradientUnits="userSpaceOnUse">
<stop stop-color="#FFD220"/>
<stop offset="1" stop-color="#3D41FD"/>
</linearGradient>
<linearGradient id="paint8_linear_14_49" x1="436.267" y1="279.134" x2="360.697" y2="519.914" gradientUnits="userSpaceOnUse">
<stop stop-color="#FFD220"/>
<stop offset="1" stop-color="#3D41FD"/>
</linearGradient>
<linearGradient id="paint9_linear_14_49" x1="436.267" y1="279.134" x2="360.697" y2="519.914" gradientUnits="userSpaceOnUse">
<stop stop-color="#FFD220"/>
<stop offset="1" stop-color="#3D41FD"/>
</linearGradient>
</defs>
</svg>
